<svg xmlns="http://www.w3.org/2000/svg" xmlns:xlink="http://www.w3.org/1999/xlink" viewBox="0 0 423 81.37"><defs><style>.cls-1{fill:url(#linear-gradient);}.cls-2{fill:url(#linear-gradient-2);}.cls-3{fill:url(#linear-gradient-3);}.cls-4{fill:url(#linear-gradient-4);}.cls-5{fill:url(#linear-gradient-5);}.cls-6{fill:url(#linear-gradient-6);}.cls-7{fill:url(#linear-gradient-7);}.cls-8{fill:url(#linear-gradient-8);}.cls-9{opacity:0.21;}.cls-10{fill:#ff0;}.cls-11{font-size:15.36px;fill:#3f01d8;font-family:Arial-BoldItalicMT, Arial;font-weight:700;font-style:italic;}</style><linearGradient id="linear-gradient" x1="24.06" y1="25.07" x2="313.19" y2="314.2" gradientUnits="userSpaceOnUse"><stop offset="0" stop-color="#3601df"/><stop offset="0.07" stop-color="#4302d8"/><stop offset="0.19" stop-color="#6403c4"/><stop offset="0.35" stop-color="#9b05a4"/><stop offset="0.54" stop-color="#e50978"/><stop offset="0.56" stop-color="#ec0974"/><stop offset="0.62" stop-color="#ef2861"/><stop offset="0.7" stop-color="#f25149"/><stop offset="0.78" stop-color="#f57036"/><stop offset="0.86" stop-color="#f78729"/><stop offset="0.93" stop-color="#f99421"/><stop offset="1" stop-color="#f9991e"/></linearGradient><linearGradient id="linear-gradient-2" x1="41.64" y1="-19.36" x2="322.49" y2="261.49" xlink:href="#linear-gradient"/><linearGradient id="linear-gradient-3" x1="-24.8" y1="-129.2" x2="508.55" y2="404.15" xlink:href="#linear-gradient"/><linearGradient id="linear-gradient-4" x1="59.58" y1="-90.9" x2="368.52" y2="218.04" xlink:href="#linear-gradient"/><linearGradient id="linear-gradient-5" x1="92.68" y1="-206.8" x2="401.62" y2="102.14" xlink:href="#linear-gradient"/><linearGradient id="linear-gradient-6" x1="-12.79" y1="-223.87" x2="433.69" y2="222.6" xlink:href="#linear-gradient"/><linearGradient id="linear-gradient-7" x1="-18.37" y1="-274.46" x2="428.1" y2="172.02" xlink:href="#linear-gradient"/><linearGradient id="linear-gradient-8" x1="-51.67" y1="-414.06" x2="418.01" y2="55.62" xlink:href="#linear-gradient"/></defs><title>Asset 4</title><g id="Layer_2" data-name="Layer 2"><g id="Layer_2-2" data-name="Layer 2"><path class="cls-1" d="M30,50A19,19,0,1,1,46.15,21H58.28a30,30,0,1,0,0,20H46.15A19,19,0,0,1,30,50Z"/><path class="cls-2" d="M91.5,11.18A19.32,19.32,0,1,1,72.18,30.5,19.35,19.35,0,0,1,91.5,11.18M91.5,0A30.5,30.5,0,1,0,122,30.5,30.51,30.51,0,0,0,91.5,0Z"/><path class="cls-3" d="M155.46,50h-13a5.51,5.51,0,0,1-5.5-5.5V2H126V46a15,15,0,0,0,15,15h20V50Z"/><path class="cls-4" d="M216.92,42.49l-4.74-11L200.68,4.82h0L199.47,2h-9.55l-1.21,2.81-11.5,26.68-4.74,11-8,18.51h12l8-18.51H205l8,18.51h12Zm-27.73-11,5.51-12.78,5.5,12.78Z"/><path class="cls-5" d="M365.92,42.49l-4.74-11L349.68,4.82h0L348.47,2h-9.55l-1.21,2.81-11.5,26.68-4.74,11-8,18.51h12l8-18.51H354l8,18.51h12Zm-27.73-11,5.51-12.78,5.5,12.78Z"/><path class="cls-6" d="M261.8,29.37l0,0c-.15-.12-.32-.23-.48-.34H262a20.51,20.51,0,0,0,2.36-4A17.18,17.18,0,0,0,266,18a14.63,14.63,0,0,0-1-5.31C263.3,8.3,259.32,4.14,252.11,2H229V61h22.5c.33,0,.65,0,1,0C268,58,268,45,268,45,269,37,262.31,29.85,261.8,29.37ZM240,13h10.6a6,6,0,0,1,4.4,6c0,2-3,6-6.52,6H240Zm10.5,37H240V36h14.22a7.49,7.49,0,0,1-3.72,14Z"/><path class="cls-7" d="M306.8,29.37l0,0c-.15-.12-.32-.23-.48-.34H307a20.51,20.51,0,0,0,2.36-4A17.18,17.18,0,0,0,311,18a14.63,14.63,0,0,0-1-5.31C308.3,8.3,304.32,4.14,297.11,2H274V61h22.5c.33,0,.65,0,1,0C313,58,313,45,313,45,314,37,307.31,29.85,306.8,29.37ZM285,13h10.6a6,6,0,0,1,4.4,6c0,2-3,6-6.52,6H285Zm10.5,37H285V36h14.22a7.49,7.49,0,0,1-3.72,14Z"/><path class="cls-8" d="M408.54,42l-.94-1.3A20,20,0,0,0,400.5,2H379V61h11V35.09L394.26,41l.72,1,13.68,19h13.56ZM401,31H390V13h11a9,9,0,0,1,0,18Z"/><g class="cls-9"><path class="cls-10" d="M400.61,31h0Z"/></g><text class="cls-11" transform="translate(319.77 75.59)">by M TECHUB</text></g></g></svg>