<svg xmlns="http://www.w3.org/2000/svg" xmlns:xlink="http://www.w3.org/1999/xlink" viewBox="0 0 141 119.37"><defs><style>.cls-1{font-size:15.36px;fill:#3f01d8;font-family:Arial-BoldItalicMT, Arial;font-weight:700;font-style:italic;}.cls-2{fill:url(#linear-gradient);}.cls-3{fill:url(#linear-gradient-2);}.cls-4{fill:url(#linear-gradient-3);}.cls-5{fill:url(#linear-gradient-4);}</style><linearGradient id="linear-gradient" x1="49.25" y1="47" x2="153.28" y2="47" gradientUnits="userSpaceOnUse"><stop offset="0.19" stop-color="#3901dc"/><stop offset="0.2" stop-color="#3d01da"/><stop offset="0.54" stop-color="#9a05a3"/><stop offset="0.78" stop-color="#d50881"/><stop offset="0.89" stop-color="#ec0974"/></linearGradient><linearGradient id="linear-gradient-2" x1="67.68" y1="16.2" x2="57.03" y2="35.75" gradientUnits="userSpaceOnUse"><stop offset="0"/><stop offset="1" stop-opacity="0"/></linearGradient><linearGradient id="linear-gradient-3" x1="85.17" y1="582.76" x2="74.52" y2="602.31" gradientTransform="matrix(1, -0.01, -0.01, -1, -11.7, 663.73)" xlink:href="#linear-gradient-2"/><linearGradient id="linear-gradient-4" y1="47.77" x2="89.81" y2="47.77" gradientUnits="userSpaceOnUse"><stop offset="0" stop-color="#ec0974"/><stop offset="0.16" stop-color="#ee2066"/><stop offset="0.49" stop-color="#f35a44"/><stop offset="0.81" stop-color="#f9991e"/></linearGradient></defs><title>Asset 2</title><g id="Layer_2" data-name="Layer 2"><g id="Layer_2-2" data-name="Layer 2"><text class="cls-1" transform="translate(18.89 113.59)">by M TECHUB</text><path class="cls-2" d="M94,17.23A29.77,29.77,0,1,1,64.23,47,29.81,29.81,0,0,1,94,17.23M94,0a47,47,0,1,0,47,47A47,47,0,0,0,94,0Z"/><path class="cls-3" d="M72.42,26.52a30.31,30.31,0,0,0-7.29,13.22l-16-6.61s1.91-9,12.41-20.08Z"/><path class="cls-4" d="M72.8,68.19A30.35,30.35,0,0,1,65.41,55l-16,6.73s2,9,12.56,20Z"/><path class="cls-5" d="M46.23,77.05A29.28,29.28,0,1,1,71.12,32.36H89.81a46.23,46.23,0,1,0,0,30.82H71.12A29.3,29.3,0,0,1,46.23,77.05Z"/></g></g></svg>