<svg xmlns="http://www.w3.org/2000/svg" viewBox="0 0 528.62 527.16"><defs><style>.cls-1{fill:#ffdf5e;}.cls-2{fill:#fdbb29;}.cls-3{fill:#f58f09;opacity:0.23;}.cls-4{fill:#ef8f04;}</style></defs><title>Asset 1</title><g id="Layer_2" data-name="Layer 2"><g id="Layer_1-2" data-name="Layer 1"><circle class="cls-1" cx="263.58" cy="263.58" r="263.58"/><circle class="cls-2" cx="263.58" cy="263.58" r="203.71"/><path class="cls-3" d="M528.62,262.85c0,146-118.34,264.31-264.31,264.31A263.05,263.05,0,0,1,105,473.74L412,43.66A264,264,0,0,1,528.62,262.85Z"/><path class="cls-4" d="M466.73,263.11c0,2.69-.06,5.38-.15,8C462.35,162.37,372.83,75.47,263,75.47S63.69,162.37,59.46,271.15c-.09-2.66-.15-5.35-.15-8,0-112.5,91.21-203.7,203.71-203.7S466.73,150.61,466.73,263.11Z"/><path class="cls-4" d="M404.14,174.82a131.15,131.15,0,0,0-22.11-18q-28.74-18.54-64.7-18.52a121.63,121.63,0,0,0-45.09,8.46A129,129,0,0,0,255.1,155a123.61,123.61,0,0,0-61.91,108.09q0,46.53,29.6,81.47c1.87,2.2,3.81,4.37,5.86,6.51a116.23,116.23,0,0,0,43.82,29.27,127.24,127.24,0,0,0,45.18,7.76q36.72,0,65.55-18.59s0,0,.05,0a129,129,0,0,0,21.36-17.44q35.85-36.09,35.86-88.13Q440.47,211.37,404.14,174.82ZM372.52,321q-14.32,14.7-32.44,20.11a74.17,74.17,0,0,1-13.62,2.72,84.75,84.75,0,0,1-8.81.45A77.37,77.37,0,0,1,273,330.69q-3-2-5.81-4.34-28.33-23-28.34-62.43,0-35.42,22.5-58.39a78.09,78.09,0,0,1,11.3-9.58q19.06-13.39,44.22-13.37a82.67,82.67,0,0,1,9.38.52,72.51,72.51,0,0,1,13.3,2.64,75.14,75.14,0,0,1,32.84,20.36q22.83,23.55,22.83,57.49Q395.18,297.73,372.52,321Z"/><path class="cls-1" d="M393.91,174.82a131.15,131.15,0,0,0-22.11-18q-28.74-18.54-64.7-18.52A121.58,121.58,0,0,0,262,146.72,129.17,129.17,0,0,0,244.87,155a123.49,123.49,0,0,0-32.61,27.13,121.33,121.33,0,0,0-12.77,18.24A123.29,123.29,0,0,0,183,263.09q0,46.53,29.59,81.47,2.81,3.3,5.87,6.51a116.27,116.27,0,0,0,43.81,29.27,127.29,127.29,0,0,0,45.19,7.76q36.72,0,65.55-18.59s0,0,0,0a129.42,129.42,0,0,0,21.36-17.44q35.85-36.09,35.85-88.13Q430.24,211.37,393.91,174.82ZM362.3,321q-14.34,14.7-32.44,20.11a74.34,74.34,0,0,1-13.62,2.72,84.89,84.89,0,0,1-8.81.45,77.37,77.37,0,0,1-44.69-13.6c-2-1.35-3.92-2.8-5.81-4.34q-28.34-23-28.35-62.43,0-35.42,22.51-58.39a77.56,77.56,0,0,1,11.3-9.58q19-13.39,44.22-13.37a82.67,82.67,0,0,1,9.38.52,72.51,72.51,0,0,1,13.3,2.64,75.16,75.16,0,0,1,32.83,20.36q22.83,23.55,22.83,57.49Q385,297.73,362.3,321Z"/><path class="cls-4" d="M261.62,196.9l-5.19,3.64s-27.16-19.15-49.66-11.4l4.94-7.21,47.41-2.5Z"/><path class="cls-4" d="M264.11,331.64l-7.48-5S226.06,341,208.91,340.06l8.73,8.73,41.48-4.68Z"/><path class="cls-4" d="M274.67,331.48A81.73,81.73,0,0,1,263,338l-2.05.9a87.73,87.73,0,0,1-34,6.47c-.82,0-1.65,0-2.47-.05a85.07,85.07,0,0,1-30.59-6.22,76.87,76.87,0,0,1-38.18-33.23q-10.36-18.45-10.35-42.25,0-34.17,23.35-57.46a78.79,78.79,0,0,1,24.93-17,80.85,80.85,0,0,1,30.54-6.26c.65,0,1.3,0,2,0a89.2,89.2,0,0,1,33.94,6.59,97.44,97.44,0,0,1,14.22,7.28A123.32,123.32,0,0,1,298.87,217l31.67-30.19c-.85-1-1.73-2-2.62-3-1.15-1.25-2.3-2.49-3.5-3.69a134.49,134.49,0,0,0-40.87-28.72c-3.17-1.45-6.39-2.77-9.61-4a132.89,132.89,0,0,0-22.65-6.24,135,135,0,0,0-24.4-2.22,130.17,130.17,0,0,0-64.63,16.82q-30,16.8-46.09,44.47t-16.09,63.22q0,55,35.36,90.18t90.8,35.16a158,158,0,0,0,24.32-1.8,125.72,125.72,0,0,0,23.61-6c1.9-.65,3.77-1.4,5.59-2.17q20.92-8.91,44.24-30.42h0c1.38-1.27,2.75-2.57,4.14-3.92.48-.45.93-.9,1.4-1.35l-30.69-32A161.44,161.44,0,0,1,274.67,331.48Z"/><path class="cls-1" d="M262.74,330.69a82.71,82.71,0,0,1-11.68,6.56l-2,.9a87.78,87.78,0,0,1-34,6.46c-.82,0-1.65,0-2.47-.05A85.06,85.06,0,0,1,182,338.35a77.08,77.08,0,0,1-38.18-33.24q-10.36-18.45-10.35-42.24,0-34.17,23.35-57.46a78.79,78.79,0,0,1,24.93-17,80.85,80.85,0,0,1,30.54-6.26c.65,0,1.3,0,2,0a89.19,89.19,0,0,1,33.94,6.58A98.5,98.5,0,0,1,262.39,196a123,123,0,0,1,24.55,20.29L318.61,186c-.85-1-1.72-2-2.62-2.94-1.15-1.25-2.3-2.5-3.5-3.69a134.14,134.14,0,0,0-40.87-28.72c-3.17-1.45-6.39-2.77-9.6-4a133.25,133.25,0,0,0-22.66-6.24,134.88,134.88,0,0,0-24.4-2.22,130.1,130.1,0,0,0-64.63,16.82q-30,16.8-46.08,44.46t-16.1,63.23q0,55,35.36,90.18t90.8,35.15a159.44,159.44,0,0,0,24.33-1.79,125.06,125.06,0,0,0,23.6-6c1.9-.65,3.77-1.39,5.59-2.17q20.93-8.91,44.24-30.41h0c1.38-1.28,2.75-2.57,4.15-3.92l1.39-1.35-30.69-32A161.57,161.57,0,0,1,262.74,330.69Z"/></g></g></svg>